<svg xmlns="http://www.w3.org/2000/svg" viewBox="0 0 1600 1000" preserveAspectRatio="xMidYMid slice">
  <defs>
    <linearGradient id="bg" x1="0" y1="0" x2="1" y2="1">
      <stop offset="0%" stop-color="#0f0f11"/>
      <stop offset="100%" stop-color="#1a1a1d"/>
    </linearGradient>
    <linearGradient id="card" x1="0" y1="0" x2="0" y2="1">
      <stop offset="0%" stop-color="#ffffff" stop-opacity="0.08"/>
      <stop offset="100%" stop-color="#ffffff" stop-opacity="0.02"/>
    </linearGradient>
    <linearGradient id="greenAccent" x1="0" y1="0" x2="1" y2="0">
      <stop offset="0%" stop-color="#00c67a"/>
      <stop offset="100%" stop-color="#00a065"/>
    </linearGradient>
    <filter id="grain">
      <feTurbulence type="fractalNoise" baseFrequency="0.9" numOctaves="2" stitchTiles="stitch"/>
      <feColorMatrix values="0 0 0 0 1  0 0 0 0 1  0 0 0 0 1  0 0 0 0.04 0"/>
    </filter>
  </defs>
  <rect width="1600" height="1000" fill="url(#bg)"/>
  <rect width="1600" height="1000" filter="url(#grain)"/>
  <!-- Floating chat card -->
  <g transform="translate(180 160)">
    <rect width="720" height="560" rx="28" fill="url(#card)" stroke="#ffffff" stroke-opacity="0.08"/>
    <g transform="translate(40 44)" fill="#ffffff">
      <rect width="44" height="44" rx="10" fill="#00c67a"/>
      <text x="22" y="29" text-anchor="middle" font-family="Inter, system-ui, sans-serif" font-size="18" font-weight="700" fill="#0a3b28">AI</text>
      <text x="62" y="22" font-family="Inter, system-ui, sans-serif" font-size="14" font-weight="600" fill="#ffffff">Qonto Page AI</text>
      <text x="62" y="42" font-family="Inter, system-ui, sans-serif" font-size="12" fill="#ffffff" opacity="0.55">Product Launch</text>
    </g>
    <!-- Message bubbles -->
    <g transform="translate(40 120)">
      <rect width="560" height="74" rx="16" fill="#ffffff" fill-opacity="0.06"/>
      <text x="22" y="32" font-family="Inter, system-ui, sans-serif" font-size="14" fill="#ffffff" opacity="0.9">Let's build your product launch page.</text>
      <text x="22" y="56" font-family="Inter, system-ui, sans-serif" font-size="14" fill="#ffffff" opacity="0.6">What's the name of the feature?</text>
    </g>
    <g transform="translate(240 212)">
      <rect width="360" height="52" rx="16" fill="#ffffff"/>
      <text x="22" y="32" font-family="Inter, system-ui, sans-serif" font-size="14" fill="#0f0f11">It's called Instant Invoicing.</text>
    </g>
    <!-- Structure card -->
    <g transform="translate(40 286)">
      <rect width="560" height="220" rx="16" fill="#ffffff" fill-opacity="0.06" stroke="#ffffff" stroke-opacity="0.08"/>
      <text x="22" y="32" font-family="Inter, system-ui, sans-serif" font-size="10" letter-spacing="2" font-weight="700" fill="#ffffff" opacity="0.55">PROPOSED STRUCTURE</text>
      <g font-family="Inter, system-ui, sans-serif" font-size="14" fill="#ffffff">
        <g transform="translate(22 60)">
          <rect width="24" height="24" rx="6" fill="#ffffff" fill-opacity="0.08"/>
          <text x="12" y="17" text-anchor="middle" font-size="11" font-weight="700" opacity="0.7">1</text>
          <text x="40" y="17" font-weight="500">Hero</text>
        </g>
        <g transform="translate(22 98)">
          <rect width="24" height="24" rx="6" fill="#ffffff" fill-opacity="0.08"/>
          <text x="12" y="17" text-anchor="middle" font-size="11" font-weight="700" opacity="0.7">2</text>
          <text x="40" y="17" font-weight="500">Benefit Pills</text>
        </g>
        <g transform="translate(22 136)">
          <rect width="24" height="24" rx="6" fill="#ffffff" fill-opacity="0.08"/>
          <text x="12" y="17" text-anchor="middle" font-size="11" font-weight="700" opacity="0.7">3</text>
          <text x="40" y="17" font-weight="500">Feature Tabs</text>
        </g>
        <g transform="translate(22 174)">
          <rect width="24" height="24" rx="6" fill="#ffffff" fill-opacity="0.08"/>
          <text x="12" y="17" text-anchor="middle" font-size="11" font-weight="700" opacity="0.7">4</text>
          <text x="40" y="17" font-weight="500">CTA Banner</text>
        </g>
      </g>
    </g>
  </g>
  <!-- Right preview -->
  <g transform="translate(980 160)">
    <rect width="440" height="560" rx="28" fill="#ffffff"/>
    <rect x="0" y="0" width="440" height="44" rx="28" fill="#f7f7f5"/>
    <rect x="0" y="30" width="440" height="14" fill="#f7f7f5"/>
    <g transform="translate(28 72)">
      <rect width="384" height="160" rx="16" fill="#0f0f11"/>
      <rect x="20" y="22" width="80" height="18" rx="9" fill="#ffffff" fill-opacity="0.14"/>
      <rect x="20" y="54" width="290" height="14" rx="4" fill="#ffffff" fill-opacity="0.92"/>
      <rect x="20" y="74" width="200" height="14" rx="4" fill="#ffffff" fill-opacity="0.92"/>
      <rect x="20" y="104" width="110" height="28" rx="6" fill="#ffffff"/>
      <rect x="140" y="104" width="100" height="28" rx="6" fill="none" stroke="#ffffff" stroke-opacity="0.35"/>
    </g>
    <g transform="translate(28 254)">
      <rect width="90" height="54" rx="10" fill="#f7f7f5"/>
      <rect x="98" width="90" height="54" rx="10" fill="#f7f7f5"/>
      <rect x="196" width="90" height="54" rx="10" fill="#f7f7f5"/>
      <rect x="294" width="90" height="54" rx="10" fill="#f7f7f5"/>
    </g>
    <g transform="translate(28 330)">
      <rect width="384" height="150" rx="14" fill="none" stroke="#e5e5e3"/>
      <rect x="18" y="18" width="70" height="22" rx="11" fill="#0f0f11"/>
      <rect x="96" y="18" width="70" height="22" rx="11" fill="#f7f7f5"/>
      <rect x="174" y="18" width="70" height="22" rx="11" fill="#f7f7f5"/>
      <rect x="18" y="56" width="340" height="8" rx="3" fill="#e5e5e3"/>
      <rect x="18" y="74" width="280" height="8" rx="3" fill="#e5e5e3"/>
      <rect x="18" y="96" width="348" height="38" rx="6" fill="#f7f7f5"/>
    </g>
    <g transform="translate(28 500)">
      <rect width="384" height="36" rx="14" fill="#0f0f11"/>
      <rect x="20" y="12" width="120" height="12" rx="3" fill="#ffffff" fill-opacity="0.9"/>
      <rect x="280" y="8" width="90" height="20" rx="6" fill="#ffffff"/>
    </g>
  </g>
  <!-- Label -->
  <g transform="translate(180 780)">
    <text font-family="Inter, system-ui, sans-serif" font-size="14" letter-spacing="4" font-weight="600" fill="#ffffff" opacity="0.5">AI · PRODUCT DESIGN · CMS</text>
    <text y="76" font-family="Inter, system-ui, sans-serif" font-size="74" font-weight="800" fill="#ffffff" letter-spacing="-2">AI Page Generator</text>
  </g>
</svg>
